<?xml version="1.0" encoding="UTF-8"?>
<svg width="70px" height="70px" viewBox="0 0 70 70" version="1.1" xmlns="http://www.w3.org/2000/svg" xmlns:xlink="http://www.w3.org/1999/xlink">
    <title>9B41E855-4E41-4859-AF58-CDE722D95BF5</title>
    <g id="📓-Documentation" stroke="none" stroke-width="1" fill="none" fill-rule="evenodd">
        <g id="V01.-Avatar" transform="translate(-108.000000, -1040.000000)">
            <g id="Default-Copy" transform="translate(108.000000, 1002.000000)">
                <g id="Illustration/Profile/A" transform="translate(0.000000, 38.000000)">
                    <circle id="Oval" fill="#954B97" cx="35" cy="35" r="35"></circle>
                    <g id="I040_Usuario" transform="translate(17.498157, 16.953125)">
                        <rect id="Rectangle" fill-rule="nonzero" x="0" y="0" width="35.546875" height="35.546875"></rect>
                        <path d="M17.7865204,17.0328776 C24.3564308,17.0328776 29.6747347,22.486779 29.6747347,29.2053167 C29.6747347,29.6143166 29.3431748,29.9458766 28.9341748,29.9458766 C28.5251749,29.9458766 28.1936149,29.6143166 28.1936149,29.2053167 C28.1936149,23.2965493 23.5299691,18.5139974 17.7865204,18.5139974 C12.0430718,18.5139974 7.37942595,23.2965493 7.37942595,29.2053167 C7.37942595,29.6143166 7.047866,29.9458766 6.63886606,29.9458766 C6.22986612,29.9458766 5.89830616,29.6143166 5.89830616,29.2053167 C5.89830616,22.486779 11.21661,17.0328776 17.7865204,17.0328776 Z M19.5965883,4.80425902 C20.461131,5.17623945 21.2011926,5.78781813 21.7294008,6.56679158 C22.2519878,7.3466212 22.5304291,8.26444635 22.5292095,9.20318481 C22.5042969,10.4767217 21.97097,11.6873739 21.0480857,12.5653267 C20.2132854,13.4021755 19.0982993,13.8947079 17.9236711,13.9520375 L17.7073062,13.9563594 L17.4891073,13.9514156 C16.6378911,13.9071407 15.8136367,13.6281467 15.1087954,13.1429635 C13.9325964,12.34475 13.1737591,11.0634781 13.0391256,9.64839415 C12.9044921,8.23331024 13.4080971,6.83192741 14.4126691,5.82623168 C15.0750678,5.16319057 15.9212725,4.71428929 16.8417055,4.53765746 C17.7660718,4.3504471 18.7252733,4.44334349 19.5965883,4.80425902 Z M17.7599998,5.82619916 L17.7451886,5.82619916 C17.0746064,5.82688288 16.4195384,6.0280455 15.8641664,6.4038684 C15.0244916,6.9753493 14.4836222,7.89170412 14.3890824,8.90299362 C14.2945426,9.91428313 14.6561948,10.9150097 15.3753969,11.6322213 C15.8619051,12.0939622 16.4668713,12.4118258 17.1231183,12.5505155 C17.795656,12.6760734 18.4901685,12.6040498 19.12263,12.3431588 C19.7285927,12.0770024 20.2434476,11.6393758 20.6037498,11.0842069 C20.977693,10.5287468 21.1739761,9.87274788 21.1665753,9.20318481 C21.1626557,8.30363031 20.8015456,7.44247725 20.1626869,6.80917384 C19.5238282,6.17587043 18.6595542,5.82229492 17.7599998,5.82619916 Z" id="Combined-Shape" fill="#FFFFFF"></path>
                    </g>
                </g>
            </g>
        </g>
    </g>
</svg>